<svg width="1280" height="640" viewBox="0 0 1280 640" fill="none" xmlns="http://www.w3.org/2000/svg">
<g clip-path="url(#clip0_2_3)">
<g filter="url(#filter0_d_2_3)">
<path d="M-40 507L-40 255.887C-40 244.517 -30.7827 235.3 -19.4125 235.3V235.3C-8.04234 235.3 1.175 244.517 1.175 255.887V507V772.742C1.175 784.113 10.3923 793.33 21.7625 793.33V793.33C33.1327 793.33 42.35 784.113 42.35 772.742V507V241.257C42.35 229.887 51.5673 220.67 62.9375 220.67V220.67C74.3077 220.67 83.525 229.887 83.525 241.257V507V741.392C83.525 752.763 92.7423 761.98 104.112 761.98V761.98C115.483 761.98 124.7 752.763 124.7 741.392V507V272.607C124.7 261.237 133.917 252.02 145.287 252.02V252.02C156.658 252.02 165.875 261.237 165.875 272.607V507V776.922C165.875 788.293 175.092 797.51 186.462 797.51V797.51C197.833 797.51 207.05 788.293 207.05 776.922V507V237.078C207.05 225.707 216.267 216.49 227.637 216.49V216.49C239.008 216.49 248.225 225.707 248.225 237.078V507V766.472C248.225 777.843 257.442 787.06 268.812 787.06V787.06C280.183 787.06 289.4 777.843 289.4 766.472V507V247.528C289.4 236.157 298.617 226.94 309.987 226.94V226.94C321.358 226.94 330.575 236.157 330.575 247.528V507V699.593C330.575 710.963 339.792 720.18 351.162 720.18V720.18C362.533 720.18 371.75 710.963 371.75 699.593V507V314.407C371.75 303.037 380.967 293.82 392.337 293.82V293.82C403.708 293.82 412.925 303.037 412.925 314.407V507V835.443C412.925 846.813 422.142 856.03 433.512 856.03V856.03C444.883 856.03 454.1 846.813 454.1 835.442V507V178.557C454.1 167.187 463.317 157.97 474.687 157.97V157.97C486.058 157.97 495.275 167.187 495.275 178.558V507V739.302C495.275 750.673 504.492 759.89 515.862 759.89V759.89C527.233 759.89 536.45 750.673 536.45 739.302V507V274.698C536.45 263.327 545.667 254.11 557.037 254.11V254.11C568.408 254.11 577.625 263.327 577.625 274.698V507V902.322C577.625 913.693 586.842 922.91 598.212 922.91V922.91C609.583 922.91 618.8 913.693 618.8 902.322V507V111.677C618.8 100.307 628.017 91.09 639.387 91.09V91.09C650.758 91.09 659.975 100.307 659.975 111.678V507V766.472C659.975 777.843 669.192 787.06 680.562 787.06V787.06C691.933 787.06 701.15 777.843 701.15 766.472V507V247.528C701.15 236.157 710.367 226.94 721.737 226.94V226.94C733.108 226.94 742.325 236.157 742.325 247.528V507V749.753C742.325 761.123 751.542 770.34 762.912 770.34V770.34C774.283 770.34 783.5 761.123 783.5 749.753V507V264.248C783.5 252.877 792.717 243.66 804.087 243.66V243.66C815.458 243.66 824.675 252.877 824.675 264.247V507V810.363C824.675 821.733 833.892 830.95 845.262 830.95V830.95C856.633 830.95 865.85 821.733 865.85 810.362V507V203.637C865.85 192.267 875.067 183.05 886.437 183.05V183.05C897.808 183.05 907.025 192.267 907.025 203.637V507V822.903C907.025 834.273 916.242 843.49 927.612 843.49V843.49C938.983 843.49 948.2 834.273 948.2 822.902V507V191.097C948.2 179.727 957.417 170.51 968.787 170.51V170.51C980.158 170.51 989.375 179.727 989.375 191.098V507V787.372C989.375 798.743 998.592 807.96 1009.96 807.96V807.96C1021.33 807.96 1030.55 798.743 1030.55 787.372V507V226.627C1030.55 215.257 1039.77 206.04 1051.14 206.04V206.04C1062.51 206.04 1071.72 215.257 1071.72 226.627V507V710.042C1071.72 721.413 1080.94 730.63 1092.31 730.63V730.63C1103.68 730.63 1112.9 721.413 1112.9 710.043V507V303.958C1112.9 292.587 1122.12 283.37 1133.49 283.37V283.37C1144.86 283.37 1154.07 292.587 1154.07 303.958V507V774.833C1154.07 786.203 1163.29 795.42 1174.66 795.42V795.42C1186.03 795.42 1195.25 786.203 1195.25 774.833V507V239.168C1195.25 227.797 1204.47 218.58 1215.84 218.58V218.58C1227.21 218.58 1236.42 227.797 1236.42 239.168V507V833.353C1236.42 844.723 1245.64 853.94 1257.01 853.94V853.94C1268.38 853.94 1277.6 844.723 1277.6 833.352V507V180.647C1277.6 169.277 1286.82 160.06 1298.19 160.06V160.06C1309.56 160.06 1318.77 169.277 1318.77 180.647V507V714.222C1318.77 725.593 1327.99 734.81 1339.36 734.81V734.81C1350.73 734.81 1359.95 725.593 1359.95 714.222V507V299.777C1359.95 288.407 1369.17 279.19 1380.54 279.19V279.19C1391.91 279.19 1401.12 288.407 1401.12 299.777V507V904.412C1401.12 915.783 1410.34 925 1421.71 925V925C1433.08 925 1442.3 915.783 1442.3 904.412V507V109.587C1442.3 98.2173 1451.52 89 1462.89 89V89C1474.26 89 1483.47 98.2173 1483.47 109.588V507V724.672C1483.47 736.043 1492.69 745.26 1504.06 745.26V745.26C1515.43 745.26 1524.65 736.043 1524.65 724.672V507V289.328C1524.65 277.957 1533.87 268.74 1545.24 268.74V268.74C1556.61 268.74 1565.82 277.957 1565.82 289.328V507V881.422C1565.82 892.793 1575.04 902.01 1586.41 902.01V902.01C1597.78 902.01 1607 892.793 1607 881.422V507" stroke="url(#paint0_linear_2_3)" stroke-width="4.11765" shape-rendering="crispEdges"/>
</g>
<rect opacity="0.88" x="390" y="417" width="500" height="82" rx="19" fill="white"/>
<path d="M443.457 477.419V440.754H447.702V477.419H443.457ZM455.982 477.419V450.888H460.068V452.745C460.669 452.392 461.412 452.038 462.296 451.684C463.216 451.33 464.189 451.03 465.214 450.782C466.24 450.499 467.231 450.358 468.186 450.358C470.627 450.358 472.484 450.8 473.757 451.684C475.066 452.533 475.968 453.913 476.463 455.823C476.959 457.733 477.206 460.245 477.206 463.358V477.419H473.067V463.517C473.067 461.217 472.926 459.378 472.643 457.998C472.395 456.619 471.865 455.628 471.051 455.027C470.273 454.39 469.07 454.072 467.443 454.072C466.559 454.072 465.639 454.178 464.684 454.39C463.764 454.567 462.898 454.815 462.084 455.133C461.27 455.416 460.598 455.699 460.068 455.982V477.419H455.982ZM506.963 478.055C504.558 478.055 502.312 477.772 500.225 477.206C498.173 476.64 496.51 475.65 495.237 474.235C493.999 472.785 493.38 470.768 493.38 468.186C493.38 466.488 493.574 465.126 493.963 464.1C494.353 463.075 494.919 462.208 495.661 461.5C496.404 460.758 497.342 460.068 498.474 459.431C496.846 458.511 495.679 457.45 494.972 456.247C494.3 455.045 493.963 453.329 493.963 451.101C493.963 448.837 494.529 447.033 495.661 445.688C496.793 444.309 498.332 443.318 500.278 442.717C502.223 442.08 504.452 441.762 506.963 441.762C509.475 441.762 511.721 442.062 513.702 442.664C515.683 443.23 517.239 444.185 518.371 445.529C519.539 446.873 520.122 448.748 520.122 451.154C520.122 453.382 519.786 455.098 519.114 456.3C518.442 457.468 517.222 458.511 515.453 459.431C516.691 460.032 517.682 460.687 518.424 461.394C519.203 462.102 519.769 462.986 520.122 464.047C520.476 465.073 520.653 466.417 520.653 468.08C520.653 470.662 520.016 472.679 518.743 474.129C517.505 475.579 515.842 476.605 513.755 477.206C511.703 477.772 509.44 478.055 506.963 478.055ZM506.963 470.892C507.883 470.892 508.679 470.786 509.351 470.574C510.023 470.326 510.536 469.919 510.89 469.353C511.244 468.787 511.42 468.027 511.42 467.072C511.42 466.294 511.279 465.639 510.996 465.109C510.748 464.543 510.395 464.083 509.935 463.729C509.475 463.34 508.962 463.021 508.396 462.774H505.531C504.682 463.128 503.974 463.658 503.408 464.366C502.842 465.073 502.559 465.993 502.559 467.125C502.559 468.045 502.736 468.787 503.09 469.353C503.479 469.884 504.01 470.273 504.682 470.521C505.354 470.768 506.114 470.892 506.963 470.892ZM505.531 456.3H508.396C509.174 455.947 509.793 455.451 510.253 454.815C510.748 454.178 510.996 453.4 510.996 452.48C510.996 451.242 510.66 450.34 509.988 449.774C509.351 449.173 508.343 448.872 506.963 448.872C505.655 448.872 504.682 449.173 504.045 449.774C503.408 450.34 503.09 451.224 503.09 452.427C503.09 453.382 503.302 454.178 503.727 454.815C504.187 455.451 504.788 455.947 505.531 456.3ZM536.397 478.055C533.991 478.055 531.922 477.719 530.189 477.047C528.491 476.375 527.093 475.332 525.997 473.917C524.936 472.466 524.157 470.609 523.662 468.345C523.167 466.046 522.919 463.304 522.919 460.121C522.919 456.796 523.167 453.983 523.662 451.684C524.193 449.35 524.989 447.457 526.05 446.007C527.146 444.556 528.544 443.495 530.242 442.823C531.94 442.116 533.991 441.762 536.397 441.762C538.838 441.762 540.907 442.116 542.605 442.823C544.338 443.495 545.735 444.556 546.797 446.007C547.893 447.457 548.671 449.35 549.131 451.684C549.627 453.983 549.874 456.796 549.874 460.121C549.874 464.366 549.414 467.815 548.495 470.468C547.61 473.121 546.178 475.049 544.197 476.251C542.251 477.454 539.651 478.055 536.397 478.055ZM536.397 470.255C537.104 470.255 537.723 470.132 538.254 469.884C538.784 469.601 539.209 469.106 539.527 468.398C539.881 467.655 540.129 466.612 540.27 465.268C540.447 463.924 540.535 462.208 540.535 460.121C540.535 457.928 540.447 456.141 540.27 454.762C540.129 453.382 539.899 452.321 539.58 451.578C539.262 450.8 538.838 450.269 538.307 449.986C537.812 449.703 537.175 449.562 536.397 449.562C535.654 449.562 535.017 449.703 534.487 449.986C533.956 450.269 533.531 450.8 533.213 451.578C532.895 452.321 532.647 453.382 532.47 454.762C532.329 456.141 532.258 457.928 532.258 460.121C532.258 462.208 532.329 463.924 532.47 465.268C532.647 466.612 532.912 467.655 533.266 468.398C533.62 469.106 534.044 469.601 534.54 469.884C535.07 470.132 535.689 470.255 536.397 470.255ZM565.724 478.055C563.319 478.055 561.072 477.772 558.985 477.206C556.934 476.64 555.271 475.65 553.998 474.235C552.759 472.785 552.14 470.768 552.14 468.186C552.14 466.488 552.335 465.126 552.724 464.1C553.113 463.075 553.679 462.208 554.422 461.5C555.165 460.758 556.102 460.068 557.234 459.431C555.607 458.511 554.44 457.45 553.732 456.247C553.06 455.045 552.724 453.329 552.724 451.101C552.724 448.837 553.29 447.033 554.422 445.688C555.554 444.309 557.093 443.318 559.038 442.717C560.984 442.08 563.212 441.762 565.724 441.762C568.236 441.762 570.482 442.062 572.463 442.664C574.444 443.23 576 444.185 577.132 445.529C578.299 446.873 578.883 448.748 578.883 451.154C578.883 453.382 578.547 455.098 577.875 456.3C577.203 457.468 575.982 458.511 574.214 459.431C575.452 460.032 576.442 460.687 577.185 461.394C577.963 462.102 578.529 462.986 578.883 464.047C579.237 465.073 579.414 466.417 579.414 468.08C579.414 470.662 578.777 472.679 577.503 474.129C576.265 475.579 574.603 476.605 572.516 477.206C570.464 477.772 568.2 478.055 565.724 478.055ZM565.724 470.892C566.644 470.892 567.44 470.786 568.112 470.574C568.784 470.326 569.297 469.919 569.65 469.353C570.004 468.787 570.181 468.027 570.181 467.072C570.181 466.294 570.04 465.639 569.757 465.109C569.509 464.543 569.155 464.083 568.695 463.729C568.236 463.34 567.723 463.021 567.157 462.774H564.291C563.442 463.128 562.735 463.658 562.169 464.366C561.603 465.073 561.32 465.993 561.32 467.125C561.32 468.045 561.497 468.787 561.851 469.353C562.24 469.884 562.77 470.273 563.442 470.521C564.114 470.768 564.875 470.892 565.724 470.892ZM564.291 456.3H567.157C567.935 455.947 568.554 455.451 569.014 454.815C569.509 454.178 569.757 453.4 569.757 452.48C569.757 451.242 569.421 450.34 568.748 449.774C568.112 449.173 567.104 448.872 565.724 448.872C564.415 448.872 563.442 449.173 562.806 449.774C562.169 450.34 561.851 451.224 561.851 452.427C561.851 453.382 562.063 454.178 562.487 454.815C562.947 455.451 563.548 455.947 564.291 456.3ZM595.635 478.055C590.895 478.055 587.428 476.517 585.235 473.439C583.077 470.326 581.998 465.869 581.998 460.068C581.998 456.566 582.352 453.647 583.059 451.313C583.767 448.943 584.757 447.068 586.031 445.688C587.34 444.309 588.878 443.318 590.647 442.717C592.416 442.116 594.344 441.815 596.431 441.815C597.527 441.815 598.748 441.903 600.092 442.08C601.472 442.222 602.816 442.399 604.125 442.611C605.433 442.823 606.548 443.053 607.467 443.301L606.778 450.198C605.999 450.092 605.027 449.986 603.859 449.88C602.692 449.739 601.489 449.632 600.251 449.562C599.048 449.456 597.899 449.403 596.802 449.403C594.821 449.403 593.353 449.969 592.398 451.101C591.443 452.232 590.93 453.842 590.859 455.929C591.213 455.788 591.638 455.646 592.133 455.505C592.628 455.363 593.141 455.222 593.672 455.08C594.238 454.939 594.786 454.832 595.317 454.762C595.847 454.656 596.342 454.603 596.802 454.603C600.764 454.603 603.718 455.54 605.663 457.415C607.609 459.254 608.582 462.19 608.582 466.223C608.582 468.911 608.051 471.122 606.99 472.855C605.929 474.589 604.425 475.898 602.48 476.782C600.534 477.631 598.253 478.055 595.635 478.055ZM595.635 470.627C597.121 470.627 598.217 470.238 598.925 469.46C599.668 468.681 600.039 467.585 600.039 466.17C600.039 464.719 599.668 463.676 598.925 463.039C598.182 462.367 597.121 462.031 595.741 462.031C595.104 462.031 594.468 462.084 593.831 462.19C593.194 462.296 592.61 462.438 592.08 462.615C591.585 462.792 591.16 462.951 590.806 463.092C590.842 464.613 590.983 465.94 591.231 467.072C591.514 468.204 592.009 469.088 592.717 469.725C593.424 470.326 594.397 470.627 595.635 470.627ZM622.772 477.419L632.801 440.754H641.98L651.956 477.419H647.711L645.111 468.133H629.617L627.017 477.419H622.772ZM630.519 464.366H644.209L638.743 444.362H635.984L630.519 464.366ZM665.258 477.949C664.444 477.949 663.454 477.896 662.287 477.79C661.155 477.684 660.023 477.56 658.891 477.419C657.759 477.242 656.751 477.083 655.866 476.941L656.079 473.386C656.963 473.492 657.953 473.616 659.05 473.757C660.182 473.899 661.278 474.023 662.34 474.129C663.401 474.2 664.25 474.235 664.887 474.235C666.337 474.235 667.54 474.111 668.495 473.864C669.45 473.581 670.175 473.121 670.67 472.484C671.165 471.847 671.413 470.945 671.413 469.778C671.413 468.894 671.219 468.204 670.829 467.709C670.476 467.213 669.786 466.806 668.76 466.488C667.77 466.17 666.319 465.869 664.409 465.586C662.428 465.268 660.766 464.879 659.421 464.419C658.113 463.924 657.14 463.198 656.503 462.243C655.866 461.288 655.548 459.926 655.548 458.158C655.548 456.177 656.008 454.62 656.927 453.488C657.847 452.356 659.032 451.56 660.483 451.101C661.968 450.605 663.507 450.358 665.099 450.358C666.089 450.358 667.168 450.411 668.336 450.517C669.538 450.623 670.706 450.764 671.838 450.941C672.97 451.083 673.942 451.224 674.756 451.366L674.65 454.921C673.801 454.779 672.81 454.656 671.678 454.549C670.546 454.408 669.414 454.302 668.282 454.231C667.151 454.125 666.16 454.072 665.311 454.072C664.25 454.072 663.295 454.196 662.446 454.443C661.597 454.656 660.925 455.045 660.43 455.611C659.934 456.177 659.687 456.973 659.687 457.998C659.687 458.777 659.864 459.413 660.217 459.909C660.571 460.368 661.243 460.758 662.234 461.076C663.224 461.394 664.657 461.713 666.531 462.031C668.725 462.385 670.476 462.827 671.785 463.358C673.129 463.888 674.101 464.631 674.703 465.586C675.304 466.541 675.605 467.885 675.605 469.619C675.605 472.732 674.685 474.907 672.846 476.145C671.006 477.348 668.477 477.949 665.258 477.949ZM689.975 477.949C689.161 477.949 688.171 477.896 687.003 477.79C685.871 477.684 684.739 477.56 683.608 477.419C682.476 477.242 681.467 477.083 680.583 476.941L680.795 473.386C681.68 473.492 682.67 473.616 683.767 473.757C684.899 473.899 685.995 474.023 687.056 474.129C688.118 474.2 688.967 474.235 689.603 474.235C691.054 474.235 692.256 474.111 693.212 473.864C694.167 473.581 694.892 473.121 695.387 472.484C695.882 471.847 696.13 470.945 696.13 469.778C696.13 468.894 695.935 468.204 695.546 467.709C695.192 467.213 694.503 466.806 693.477 466.488C692.486 466.17 691.036 465.869 689.126 465.586C687.145 465.268 685.482 464.879 684.138 464.419C682.829 463.924 681.857 463.198 681.22 462.243C680.583 461.288 680.265 459.926 680.265 458.158C680.265 456.177 680.725 454.62 681.644 453.488C682.564 452.356 683.749 451.56 685.199 451.101C686.685 450.605 688.224 450.358 689.816 450.358C690.806 450.358 691.885 450.411 693.052 450.517C694.255 450.623 695.422 450.764 696.554 450.941C697.686 451.083 698.659 451.224 699.473 451.366L699.367 454.921C698.518 454.779 697.527 454.656 696.395 454.549C695.263 454.408 694.131 454.302 692.999 454.231C691.867 454.125 690.877 454.072 690.028 454.072C688.967 454.072 688.012 454.196 687.163 454.443C686.314 454.656 685.642 455.045 685.146 455.611C684.651 456.177 684.403 456.973 684.403 457.998C684.403 458.777 684.58 459.413 684.934 459.909C685.288 460.368 685.96 460.758 686.95 461.076C687.941 461.394 689.373 461.713 691.248 462.031C693.441 462.385 695.192 462.827 696.501 463.358C697.845 463.888 698.818 464.631 699.42 465.586C700.021 466.541 700.322 467.885 700.322 469.619C700.322 472.732 699.402 474.907 697.562 476.145C695.723 477.348 693.194 477.949 689.975 477.949ZM715.806 477.949C713.153 477.949 711.048 477.436 709.492 476.41C707.971 475.385 706.874 473.864 706.202 471.847C705.53 469.831 705.194 467.319 705.194 464.313C705.194 460.952 705.654 458.264 706.573 456.247C707.493 454.196 708.784 452.71 710.447 451.79C712.109 450.835 714.073 450.358 716.336 450.358C719.874 450.358 722.545 451.348 724.349 453.329C726.153 455.275 727.055 458.423 727.055 462.774L726.842 465.904H709.385C709.421 468.664 709.934 470.751 710.924 472.166C711.915 473.581 713.701 474.288 716.283 474.288C717.274 474.288 718.353 474.27 719.52 474.235C720.723 474.164 721.908 474.094 723.075 474.023C724.243 473.952 725.233 473.881 726.047 473.811L726.153 477.047C725.304 477.189 724.26 477.33 723.022 477.472C721.819 477.613 720.581 477.719 719.308 477.79C718.034 477.896 716.867 477.949 715.806 477.949ZM709.385 462.562H722.916C722.916 459.307 722.385 457.043 721.324 455.77C720.298 454.461 718.636 453.807 716.336 453.807C714.108 453.807 712.392 454.479 711.19 455.823C709.987 457.167 709.385 459.413 709.385 462.562ZM733.204 477.419V450.888H737.289V452.745C738.138 452.25 739.288 451.737 740.738 451.207C742.189 450.641 743.586 450.358 744.93 450.358C746.699 450.358 748.114 450.57 749.175 450.994C750.271 451.419 751.156 452.109 751.828 453.064C752.535 452.675 753.402 452.268 754.428 451.843C755.454 451.419 756.55 451.065 757.718 450.782C758.92 450.499 760.088 450.358 761.22 450.358C763.625 450.358 765.464 450.782 766.738 451.631C768.047 452.445 768.949 453.807 769.444 455.717C769.939 457.627 770.187 460.174 770.187 463.358V477.419H766.101V463.517C766.101 461.217 765.96 459.378 765.677 457.998C765.429 456.619 764.916 455.628 764.138 455.027C763.36 454.39 762.175 454.072 760.583 454.072C759.168 454.072 757.771 454.284 756.391 454.709C755.047 455.133 754.003 455.558 753.261 455.982C753.508 456.902 753.667 458.051 753.738 459.431C753.844 460.775 753.897 462.173 753.897 463.623V477.419H749.812V463.729C749.812 461.324 749.688 459.431 749.44 458.051C749.193 456.637 748.662 455.628 747.848 455.027C747.07 454.39 745.885 454.072 744.293 454.072C742.949 454.072 741.623 454.284 740.314 454.709C739.005 455.133 737.997 455.558 737.289 455.982V477.419H733.204ZM786.473 477.949C785.695 477.949 784.758 477.914 783.661 477.843C782.6 477.808 781.521 477.737 780.424 477.631C779.328 477.525 778.355 477.436 777.506 477.366V439.374H781.645V452.162C782.494 451.773 783.643 451.384 785.094 450.994C786.544 450.57 787.941 450.358 789.285 450.358C791.691 450.358 793.601 450.818 795.016 451.737C796.466 452.622 797.492 454.054 798.094 456.035C798.73 457.981 799.049 460.545 799.049 463.729C799.049 467.266 798.66 470.079 797.881 472.166C797.138 474.217 795.847 475.703 794.008 476.623C792.204 477.507 789.692 477.949 786.473 477.949ZM786.42 474.235C788.826 474.235 790.612 473.881 791.779 473.174C792.982 472.431 793.778 471.281 794.167 469.725C794.592 468.168 794.804 466.17 794.804 463.729C794.804 461.465 794.627 459.626 794.273 458.211C793.919 456.796 793.3 455.752 792.416 455.08C791.567 454.408 790.382 454.072 788.861 454.072C787.552 454.072 786.226 454.249 784.881 454.603C783.537 454.921 782.458 455.239 781.645 455.558V473.97C782.388 474.04 783.237 474.111 784.192 474.182C785.182 474.217 785.925 474.235 786.42 474.235ZM805.859 477.419V439.374H809.944V477.419H805.859ZM823.443 489.145L826.892 477.419H822.912L815.431 450.888H819.569L826.043 473.864H827.847L834.373 450.888H838.512L827.582 489.145H823.443Z" fill="#4DA8AE"/>
<path fill-rule="evenodd" clip-rule="evenodd" d="M255.448 373.498L239.253 370.799L241.746 340.617L252.13 341.957C253.141 342.088 254.238 342.227 255.422 342.375C255.139 342.257 254.859 342.138 254.583 342.016L254.548 342.001L254.514 341.986C249.749 339.846 245.66 336.534 242.957 331.834L242.91 331.751L242.864 331.668C240.337 327.074 239.492 321.755 239.492 316.47C239.492 310.372 240.596 304.255 243.927 299.177C247.09 294.29 251.621 290.9 257.037 288.995C261.843 287.304 267.12 286.585 272.675 286.585C275.162 286.585 277.87 286.733 280.771 287.006C283.668 287.21 286.51 287.481 289.295 287.821C292.179 288.165 294.77 288.56 297.011 289.023L305.439 290.767L304.345 310.829C305.62 309.809 307.01 308.901 308.513 308.115C313.774 305.301 319.864 304.239 326.186 304.239C332.521 304.239 338.649 305.283 343.896 308.134C345.299 308.87 346.603 309.713 347.808 310.654V305.306H379.541C381.03 304.838 382.546 304.478 384.084 304.25L384.616 304.171V292.405H417.148V286.488H450.146V305.306H469.41C469.431 305.3 469.452 305.294 469.473 305.288L469.521 305.275L469.569 305.262C471.997 304.608 474.49 304.239 477.019 304.239C482.474 304.239 488.141 305.169 492.865 308.227C495.209 309.694 497.102 311.533 498.61 313.607C499.696 312.302 500.969 311.098 502.453 310.024C508.365 305.729 515.791 304.239 523.456 304.239C525.644 304.239 527.901 304.407 530.21 304.715C531.753 304.92 533.186 305.141 534.463 305.384L559.355 304.926V333.974L554.226 333.907C553.943 338.393 552.911 342.879 550.49 346.753C550.094 347.402 549.67 348.019 549.221 348.607C551.863 350.24 554.161 352.509 555.806 355.525C558.113 359.753 558.773 364.678 558.773 369.335C558.773 377.726 555.608 385.391 548.287 390.311C541.998 394.642 534.153 396.213 525.881 396.213C520.271 396.213 515.157 395.798 510.714 394.811L510.695 394.807L510.675 394.802C505.782 393.694 501.042 391.42 497.529 387.287C494.152 383.376 492.837 378.598 492.562 374H419.924C418.785 374.179 417.534 374.369 416.174 374.569C413.776 374.932 411.464 375.164 409.36 375.164C404.96 375.164 400.471 374.543 396.469 372.66C391.669 370.401 388.423 366.501 386.641 361.867L386.586 361.724L386.536 361.581C385.091 357.454 384.616 352.573 384.616 347.51V337.101C384.252 337.208 383.872 337.33 383.475 337.467L383.327 337.517L383.179 337.564C382.321 337.83 381.498 338.109 380.709 338.399V374H347.808V368.825C346.706 369.678 345.521 370.451 344.252 371.137C338.948 374.038 332.67 375.067 326.186 375.067C319.715 375.067 313.476 374.02 308.156 371.156L308.121 371.136L308.085 371.117C304.983 369.414 302.392 367.186 300.313 364.534C297.524 367.985 293.934 370.581 289.737 372.291L289.692 372.309L289.648 372.327C284.742 374.271 279.282 375.067 273.548 375.067C270.693 375.067 267.672 374.882 264.503 374.533C261.471 374.262 258.496 373.923 255.579 373.516L255.448 373.498ZM265.497 364.582C268.407 364.905 271.091 365.067 273.548 365.067C278.398 365.067 282.537 364.388 285.964 363.03C289.456 361.607 292.107 359.344 293.918 356.24C294.38 355.46 294.785 354.619 295.133 353.717C296.198 350.957 296.731 347.627 296.731 343.727C296.731 342.101 296.633 340.613 296.436 339.265C296.243 337.933 295.953 336.737 295.567 335.676C295.132 334.479 294.555 333.405 293.835 332.452C293.271 331.706 292.62 331.035 291.881 330.438C290.264 329.08 288.098 327.916 285.382 326.946C282.731 325.976 279.497 325.071 275.682 324.23C272.449 323.519 269.894 322.84 268.019 322.193C266.208 321.546 264.915 320.706 264.139 319.671C263.363 318.636 262.975 317.149 262.975 315.209C262.975 312.622 263.848 310.747 265.594 309.583C267.34 308.419 270.056 307.837 273.742 307.837C275.488 307.837 277.59 307.934 280.047 308.128C281.512 308.241 282.977 308.364 284.442 308.499C285.499 308.596 286.556 308.699 287.613 308.807C290.2 309.001 292.463 309.227 294.403 309.486L294.985 298.816C293.11 298.428 290.814 298.072 288.098 297.749C285.447 297.426 282.731 297.167 279.95 296.973C277.234 296.714 274.809 296.585 272.675 296.585C267.954 296.585 263.848 297.199 260.356 298.428C256.864 299.657 254.18 301.726 252.305 304.636C250.43 307.481 249.492 311.426 249.492 316.47C249.492 320.803 250.203 324.262 251.626 326.849C253.113 329.436 255.441 331.44 258.61 332.863C261.843 334.286 266.047 335.482 271.22 336.452C274.324 337.034 276.749 337.648 278.495 338.295C280.241 338.877 281.437 339.685 282.084 340.72C282.795 341.69 283.151 343.016 283.151 344.697C283.151 347.801 282.31 350.097 280.629 351.584C278.948 353.007 276.264 353.718 272.578 353.718C270.638 353.718 268.342 353.621 265.691 353.427C264.07 353.305 262.436 353.171 260.789 353.024C259.809 352.937 258.824 352.845 257.834 352.748C255.183 352.425 252.855 352.134 250.85 351.875L249.977 362.448L256.961 363.612C259.742 364 262.587 364.323 265.497 364.582ZM293.144 319.407C294.314 320.002 295.446 320.667 296.52 321.412C296.55 321.339 296.581 321.266 296.612 321.193C296.791 320.771 296.978 320.354 297.175 319.944L293.144 319.407ZM305.816 325.103C305.14 326.682 304.61 328.471 304.229 330.468C304.094 331.17 303.979 331.899 303.881 332.653C303.619 334.672 303.488 336.876 303.488 339.265C303.488 340.826 303.539 342.314 303.639 343.727C303.914 347.611 304.569 350.935 305.601 353.7C305.64 353.804 305.68 353.907 305.719 354.009C307.207 357.76 309.599 360.54 312.897 362.351C316.26 364.162 320.69 365.067 326.186 365.067C331.748 365.067 336.177 364.162 339.475 362.351C342.838 360.54 345.263 357.76 346.75 354.009C347.159 352.961 347.511 351.83 347.808 350.616C348.59 347.411 348.981 343.627 348.981 339.265C348.981 335.216 348.59 331.699 347.808 328.714C347.465 327.409 347.048 326.205 346.556 325.103C345.004 321.417 342.547 318.701 339.184 316.955C335.886 315.144 331.554 314.239 326.186 314.239C320.884 314.239 316.551 315.144 313.188 316.955C309.826 318.701 307.368 321.417 305.816 325.103ZM357.808 364H370.709V331.893C371.873 331.311 373.263 330.664 374.88 329.953C375.316 329.768 375.759 329.588 376.208 329.412C377.079 329.072 377.974 328.747 378.893 328.439C379.328 328.293 379.769 328.151 380.215 328.013C381.747 327.485 383.214 327.086 384.616 326.817C384.931 326.756 385.242 326.702 385.55 326.655V314.142C385.242 314.188 384.93 314.242 384.616 314.306C383.519 314.529 382.385 314.862 381.214 315.306C381.046 315.37 380.878 315.435 380.709 315.503C380.481 315.595 380.251 315.691 380.021 315.791C379.639 315.949 379.264 316.11 378.893 316.276C377.726 316.799 376.611 317.361 375.55 317.963C375.291 318.109 375.035 318.258 374.783 318.41C373.416 319.175 372.235 319.917 371.238 320.636C371.16 320.692 371.084 320.748 371.009 320.803C370.97 320.832 370.931 320.861 370.892 320.89C370.83 320.937 370.769 320.983 370.709 321.029V315.306H357.808V364ZM394.616 347.51C394.616 352.101 395.069 355.69 395.974 358.277C396.944 360.799 398.528 362.577 400.727 363.612C402.926 364.647 405.803 365.164 409.36 365.164C410.783 365.164 412.561 365.002 414.695 364.679C415.563 364.551 416.38 364.429 417.148 364.311C417.852 364.203 418.515 364.099 419.134 364C419.549 363.933 419.945 363.869 420.321 363.806L419.933 353.427C419.351 353.492 418.607 353.556 417.702 353.621L414.986 353.815C414.081 353.88 413.402 353.912 412.949 353.912C412.266 353.912 411.658 353.86 411.126 353.756C410.397 353.614 409.808 353.375 409.36 353.039C408.584 352.457 408.067 351.455 407.808 350.032C407.614 348.609 407.517 346.637 407.517 344.115V326.073H419.933V315.306H407.517V302.405H394.616V315.306H388.893V326.073H394.616V347.51ZM427.148 307.546H440.146V296.488H427.148V307.546ZM427.148 315.306V364H440.049V315.306H427.148ZM317.456 330.826C316.874 332.895 316.583 335.708 316.583 339.265C316.583 342.886 316.81 345.829 317.262 348.092C317.78 350.291 318.717 351.907 320.075 352.942C321.433 353.912 323.47 354.397 326.186 354.397C328.902 354.397 330.939 353.912 332.297 352.942C333.655 351.907 334.561 350.291 335.013 348.092C335.531 345.829 335.789 342.886 335.789 339.265C335.789 335.708 335.498 332.895 334.916 330.826C334.334 328.692 333.364 327.172 332.006 326.267C330.648 325.362 328.708 324.909 326.186 324.909C323.729 324.909 321.789 325.362 320.366 326.267C319.008 327.172 318.038 328.692 317.456 330.826ZM471.51 325.733C472.271 325.636 473.008 325.588 473.721 325.588C475.855 325.588 477.472 326.041 478.571 326.946C479.67 327.851 480.414 329.339 480.802 331.408C481.19 333.413 481.384 336.096 481.384 339.459V364H494.382V338.78C494.382 335.954 494.268 333.4 494.04 331.117C493.873 329.455 493.646 327.936 493.359 326.561C493.201 325.805 493.025 325.093 492.83 324.424C491.795 320.803 490.017 318.216 487.495 316.664C485.038 315.047 481.546 314.239 477.019 314.239C475.953 314.239 474.857 314.346 473.73 314.559C473.216 314.657 472.696 314.776 472.169 314.918C471.733 315.04 471.301 315.17 470.873 315.306C470.177 315.528 469.492 315.77 468.821 316.03C468.709 316.073 468.597 316.117 468.486 316.162C468.358 316.213 468.23 316.264 468.103 316.317C467.905 316.399 467.709 316.482 467.513 316.567C466.026 317.149 464.765 317.763 463.73 318.41V315.306H450.829V364H463.73V328.013C464.441 327.625 465.347 327.237 466.446 326.849C467.161 326.611 467.887 326.409 468.626 326.244C469.091 326.14 469.561 326.051 470.035 325.976C470.402 325.903 470.764 325.84 471.121 325.787C471.248 325.768 471.374 325.751 471.499 325.735C471.503 325.734 471.506 325.734 471.51 325.733ZM503.497 326.383C503.223 327.819 503.086 329.397 503.086 331.117C503.086 334.156 503.442 336.646 504.153 338.586C504.179 338.651 504.206 338.716 504.232 338.78C504.281 338.899 504.331 339.017 504.382 339.134C504.889 340.297 505.472 341.309 506.13 342.171C506.426 342.558 506.737 342.915 507.063 343.242C507.857 343.992 508.681 344.621 509.535 345.13C509.933 345.368 510.338 345.579 510.749 345.764C510.456 346.141 510.16 346.538 509.86 346.955C509.817 347.015 509.774 347.076 509.73 347.137C509.278 347.774 508.817 348.457 508.349 349.186C508.212 349.4 508.075 349.617 507.936 349.838C507.031 351.325 506.578 352.457 506.578 353.233C506.578 353.771 506.612 354.295 506.68 354.808C506.787 355.622 506.98 356.405 507.259 357.155C507.289 357.239 507.321 357.322 507.354 357.404C507.677 358.084 508.048 358.675 508.47 359.177C508.81 359.582 509.181 359.928 509.585 360.217C508.671 360.912 507.839 361.597 507.09 362.272C507.004 362.349 506.92 362.425 506.836 362.502C506.359 362.941 505.918 363.376 505.511 363.806C505.294 364.05 505.088 364.298 504.894 364.548C504.714 364.78 504.543 365.014 504.382 365.251C503.891 365.975 503.491 366.722 503.183 367.492C503.146 367.603 503.111 367.715 503.077 367.828C502.695 369.099 502.504 370.507 502.504 372.051C502.504 372.729 502.532 373.379 502.587 374C502.842 376.872 503.688 379.133 505.123 380.781C506.869 382.85 509.456 384.273 512.883 385.049C513.542 385.195 514.23 385.328 514.949 385.447C515.327 385.509 515.714 385.568 516.11 385.623C516.138 385.627 516.167 385.631 516.195 385.635C518.831 385.996 521.833 386.188 525.202 386.211C525.427 386.212 525.653 386.213 525.881 386.213C530.036 386.213 533.66 385.747 536.753 384.816C539.004 384.138 540.974 383.213 542.662 382.042C546.736 379.326 548.773 375.09 548.773 369.335C548.773 365.455 548.191 362.448 547.027 360.314C545.863 358.18 543.891 356.693 541.11 355.852C540.748 355.74 540.369 355.635 539.973 355.538C539.327 355.379 538.636 355.241 537.901 355.122C537.838 355.112 537.775 355.102 537.712 355.092C535.563 354.758 533.043 354.591 530.149 354.591C527.469 354.591 525.302 354.553 523.65 354.477C523.151 354.454 522.698 354.427 522.292 354.397C521.844 354.345 521.435 354.284 521.065 354.214C520.913 354.185 520.766 354.155 520.627 354.123C519.837 353.941 519.26 353.709 518.897 353.427C518.813 353.353 518.736 353.274 518.665 353.19C518.479 352.969 518.341 352.713 518.251 352.42C518.165 352.145 518.122 351.837 518.121 351.498C518.121 351.494 518.121 351.491 518.121 351.487C518.121 351.164 518.251 350.614 518.509 349.838C518.658 349.354 518.807 348.902 518.956 348.482C519.066 348.173 519.176 347.881 519.285 347.607C519.867 347.672 520.611 347.769 521.516 347.898C521.594 347.904 521.671 347.909 521.746 347.914C522.123 347.94 522.464 347.959 522.768 347.973C522.86 347.977 522.948 347.98 523.032 347.983C523.065 347.984 523.097 347.985 523.129 347.986C523.282 347.991 523.423 347.994 523.553 347.995C523.586 347.995 523.619 347.995 523.65 347.995C524.863 347.995 526.02 347.964 527.122 347.903C528.182 347.844 529.191 347.757 530.149 347.641C530.847 347.557 531.519 347.458 532.163 347.343C533.25 347.151 534.26 346.915 535.193 346.637C536.419 346.246 537.519 345.733 538.493 345.1C539.932 344.163 541.096 342.962 541.983 341.496C543.212 339.551 543.954 336.977 544.21 333.775C544.278 332.933 544.311 332.047 544.311 331.117C544.311 329.371 544.053 327.916 543.535 326.752C543.332 326.2 543.115 325.693 542.886 325.233C542.626 324.71 542.349 324.247 542.055 323.842C542.031 323.809 542.007 323.777 541.983 323.745L549.355 323.842V315.112L533.544 315.403C533.441 315.38 533.335 315.357 533.225 315.334C532.102 315.098 530.656 314.863 528.888 314.627C526.986 314.373 525.207 314.244 523.553 314.239C523.521 314.239 523.489 314.239 523.456 314.239C523.087 314.239 522.723 314.243 522.363 314.251C519.056 314.327 516.151 314.753 513.647 315.527C511.606 316.159 509.832 317.023 508.324 318.119C505.81 319.935 504.201 322.689 503.497 326.383ZM529.129 337.691C529.399 337.522 529.642 337.336 529.858 337.131C531.152 335.902 531.798 333.898 531.798 331.117C531.798 328.336 531.152 326.332 529.858 325.103C529.763 325.008 529.663 324.917 529.558 324.829C529.048 324.405 528.417 324.068 527.663 323.815C526.556 323.445 525.186 323.26 523.553 323.26C523.521 323.26 523.489 323.26 523.456 323.26C520.916 323.273 519.002 323.781 517.714 324.786C517.585 324.887 517.462 324.992 517.345 325.103C516.117 326.332 515.502 328.336 515.502 331.117C515.502 333.898 516.117 335.902 517.345 337.131C517.433 337.21 517.525 337.287 517.62 337.36C518.318 337.901 519.208 338.298 520.292 338.549C520.862 338.682 521.487 338.774 522.164 338.826C522.374 338.842 522.588 338.855 522.807 338.863C523.05 338.872 523.298 338.877 523.553 338.877C523.586 338.877 523.618 338.877 523.65 338.877C526.054 338.866 527.88 338.471 529.129 337.691ZM522.56 331.916C522.631 332 522.707 332.086 522.789 332.172C522.82 332.204 522.851 332.236 522.883 332.268C522.913 332.296 522.943 332.324 522.973 332.351C523.175 332.537 523.372 332.689 523.553 332.813C523.574 332.827 523.594 332.84 523.614 332.854C523.806 332.723 524.016 332.559 524.233 332.353L523.205 331.271L522.56 331.916ZM522.904 330.954L522.32 331.603C522.197 331.429 522.098 331.264 522.021 331.117C522.122 330.925 522.259 330.703 522.441 330.467L522.904 330.954ZM523.359 331.117L524.416 332.174C524.55 332.04 524.669 331.908 524.774 331.779L523.762 330.714L523.359 331.117ZM523.433 330.367L523.043 330.8L522.56 330.318C522.68 330.175 522.816 330.028 522.971 329.881L523.433 330.367ZM523.771 330.705L524.781 331.771C524.972 331.536 525.119 331.313 525.23 331.117C525.117 330.919 524.969 330.693 524.774 330.455C524.735 330.407 524.694 330.359 524.651 330.31C524.579 330.228 524.501 330.144 524.416 330.06L523.771 330.705ZM523.441 330.358L522.981 329.871C523.18 329.683 523.373 329.526 523.553 329.396C523.573 329.382 523.592 329.369 523.611 329.355C523.746 329.453 523.888 329.566 524.035 329.698L523.441 330.358ZM520.033 364.837C519.709 364.822 519.395 364.801 519.091 364.776C518.38 364.711 517.863 364.679 517.539 364.679C516.255 365.555 515.339 366.351 514.793 367.069C514.734 367.146 514.68 367.223 514.629 367.298C514.246 367.921 514.005 368.685 513.906 369.592C513.871 369.909 513.853 370.244 513.853 370.596C513.853 372.083 514.209 373.247 514.92 374.088C515.455 374.768 516.245 375.302 517.29 375.69C517.636 375.819 518.01 375.931 518.412 376.028C520.094 376.416 522.357 376.61 525.202 376.61C525.432 376.61 525.659 376.608 525.881 376.605C529.238 376.557 531.747 376.146 533.41 375.372C533.558 375.302 533.7 375.23 533.835 375.155C535.646 374.25 536.551 372.73 536.551 370.596C536.551 368.915 536.228 367.686 535.581 366.91C534.999 366.134 533.997 365.617 532.574 365.358C531.152 365.164 529.212 365.067 526.754 365.067C526.108 365.067 525.332 365.035 524.426 364.97C523.521 364.97 522.583 364.938 521.613 364.873C521.063 364.873 520.536 364.861 520.033 364.837ZM520.679 366.286C520.679 366.286 520.689 366.288 520.707 366.294C520.688 366.289 520.679 366.286 520.679 366.286ZM520.745 366.307L520.2 368.581L521.262 370.139L521.492 366.698C521.14 366.465 520.866 366.351 520.745 366.307ZM521.613 366.781V370.654L522.72 372.277L523.146 372.539C523.769 371.526 523.845 370.736 523.853 370.596C523.852 370.498 523.811 369.279 522.781 367.912M518.713 374.776C519.553 374.835 520.409 374.866 521.277 374.872C522.217 374.929 523.146 374.962 524.065 374.969M517.539 366.732V369.089ZM518.461 366.031L520.148 368.505L520.661 366.284C520.676 366.288 520.692 366.291 520.709 366.295M517.539 369.238V374.679C517.461 374.679 517.421 374.677 517.434 374.678C517.443 374.678 517.479 374.68 517.546 374.684C517.683 374.692 517.892 374.708 518.186 374.735L518.223 374.738L518.261 374.741C518.407 374.754 518.554 374.765 518.701 374.775L518.456 375.841M518.457 375.841L518.713 374.776ZM515.783 368.067L517.539 369.238ZM270.058 316.279L269.593 315.581ZM560.251 374L582.224 287.749H621.156L627.071 311.1V285.421H659.972V309.376C665.722 305.578 672.773 304.239 680.039 304.239C682.227 304.239 684.484 304.407 686.793 304.715C688.336 304.92 689.769 305.141 691.046 305.384L715.938 304.926V308.161C715.968 308.146 715.998 308.13 716.027 308.115C721.288 305.301 727.378 304.239 733.7 304.239C740.035 304.239 746.163 305.283 751.409 308.134C752.812 308.87 754.117 309.713 755.321 310.654V305.306H787.054C787.961 305.021 788.877 304.776 789.802 304.577V286.488H822.8V292.405H848.343V285.421H881.244V304.396C882.311 304.293 883.376 304.239 884.436 304.239C889.934 304.239 895.585 305.185 900.327 308.195C900.897 308.549 901.44 308.925 901.958 309.321V305.306H930.471C932.938 304.624 935.473 304.239 938.051 304.239C941.807 304.239 945.714 304.747 949.282 306.315C949.983 306.61 950.663 306.938 951.323 307.299C953.337 306.52 955.449 305.863 957.645 305.314C960.429 304.617 963.25 304.239 966.084 304.239C971.793 304.239 977.73 305.199 982.592 308.44C984.615 309.789 986.296 311.407 987.677 313.213C990.618 309.849 994.347 307.513 998.584 306.177C1002.6 304.85 1006.82 304.239 1011.16 304.239C1013.76 304.239 1016.4 304.385 1019.08 304.67C1021.64 304.88 1024.09 305.16 1026.43 305.516C1028.7 305.86 1030.74 306.225 1032.49 306.622L1040.59 308.464L1039.43 337.825L1039.32 337.807C1041 341.433 1041.53 345.404 1041.53 349.159C1041.53 356.945 1039.14 364.896 1031.94 369.824L1031.93 369.836L1031.91 369.847C1026.15 373.761 1018.94 375.067 1011.55 375.067C1009.05 375.067 1006.44 374.918 1003.73 374.637C1001.18 374.427 998.724 374.146 996.373 373.79L996.35 373.787L996.327 373.783C995.428 373.643 994.564 373.499 993.738 373.354V374H851.119C849.98 374.179 848.729 374.369 847.368 374.569C844.971 374.932 842.659 375.164 840.555 375.164C836.155 375.164 831.666 374.543 827.664 372.66C825.77 371.769 824.118 370.622 822.703 369.275V374H789.802V337.849C789.261 338.027 788.735 338.211 788.222 338.399V374H755.321V368.825C754.219 369.679 753.033 370.452 751.764 371.138C746.46 374.038 740.183 375.067 733.7 375.067C727.228 375.067 720.99 374.02 715.67 371.156L715.634 371.136L715.599 371.117C715.504 371.065 715.41 371.012 715.316 370.959C714.928 378.71 711.716 385.71 704.87 390.311C698.581 394.642 690.736 396.213 682.464 396.213C676.854 396.213 671.74 395.798 667.297 394.811L667.278 394.807L667.258 394.802C662.366 393.694 657.627 391.421 654.114 387.289C650.736 383.377 649.42 378.599 649.145 374H609.15L605.464 360.614H597.625L594.133 374H560.251ZM589.899 350.614H613.082L616.768 364H630.154L613.373 297.749H589.996L573.118 364H586.407L589.899 350.614ZM611.142 339.847H592.033L599.599 308.613H603.673L611.142 339.847ZM649.972 364V295.421H637.071V364H649.972ZM659.972 327.003C659.77 328.27 659.669 329.641 659.669 331.117C659.669 332.735 659.77 334.197 659.972 335.503C660.149 336.651 660.404 337.679 660.736 338.586C661.295 339.982 661.953 341.177 662.713 342.171C663.009 342.558 663.32 342.915 663.646 343.242C664.44 343.992 665.264 344.621 666.118 345.13C666.516 345.368 666.921 345.579 667.332 345.764C667.039 346.141 666.743 346.538 666.443 346.955C666.4 347.015 666.357 347.076 666.313 347.137C665.861 347.774 665.4 348.457 664.932 349.186C664.795 349.4 664.658 349.617 664.519 349.838C663.614 351.325 663.161 352.457 663.161 353.233C663.161 353.771 663.195 354.295 663.263 354.808C663.37 355.622 663.563 356.405 663.842 357.155C663.872 357.239 663.904 357.322 663.937 357.404C664.26 358.084 664.632 358.675 665.053 359.177C665.393 359.582 665.764 359.928 666.168 360.217C665.254 360.912 664.422 361.597 663.673 362.272C663.587 362.349 663.503 362.425 663.419 362.502C662.942 362.941 662.501 363.376 662.094 363.806C661.877 364.05 661.671 364.298 661.477 364.548C660.861 365.34 660.359 366.162 659.972 367.012C659.899 367.171 659.831 367.331 659.766 367.492C659.729 367.603 659.694 367.715 659.66 367.828C659.278 369.099 659.087 370.507 659.087 372.051C659.087 372.729 659.115 373.379 659.17 374C659.425 376.872 660.271 379.133 661.706 380.781C663.452 382.85 666.039 384.273 669.466 385.049C670.125 385.195 670.813 385.328 671.532 385.447C671.91 385.509 672.297 385.568 672.693 385.623C672.721 385.627 672.75 385.631 672.778 385.635C675.414 385.996 678.416 386.188 681.785 386.211C682.01 386.212 682.236 386.213 682.464 386.213C686.619 386.213 690.243 385.747 693.336 384.816C695.587 384.138 697.557 383.213 699.245 382.042C703.319 379.326 705.356 375.09 705.356 369.335C705.356 365.455 704.774 362.448 703.61 360.314C702.446 358.18 700.474 356.693 697.693 355.852C697.331 355.74 696.952 355.635 696.556 355.538C695.91 355.379 695.219 355.241 694.484 355.122C694.421 355.112 694.358 355.102 694.295 355.092C692.146 354.758 689.626 354.591 686.732 354.591C684.052 354.591 681.885 354.553 680.233 354.477C679.734 354.454 679.281 354.427 678.875 354.397C678.427 354.345 678.018 354.284 677.648 354.214C677.496 354.185 677.349 354.155 677.21 354.123C676.42 353.941 675.843 353.709 675.48 353.427C675.396 353.353 675.319 353.274 675.248 353.19C675.062 352.969 674.924 352.713 674.834 352.42C674.748 352.145 674.705 351.837 674.704 351.498C674.704 351.494 674.704 351.491 674.704 351.487C674.704 351.164 674.834 350.614 675.092 349.838C675.241 349.354 675.39 348.902 675.539 348.482C675.649 348.173 675.759 347.881 675.868 347.607C676.45 347.672 677.194 347.769 678.099 347.898C678.177 347.904 678.254 347.909 678.329 347.914C678.706 347.94 679.047 347.959 679.351 347.973C679.443 347.977 679.531 347.98 679.615 347.983C679.648 347.984 679.68 347.985 679.712 347.986C679.865 347.991 680.006 347.994 680.136 347.995C680.169 347.995 680.202 347.995 680.233 347.995C681.446 347.995 682.603 347.964 683.705 347.903C684.765 347.844 685.774 347.757 686.732 347.641C687.43 347.557 688.102 347.458 688.746 347.343C689.833 347.151 690.843 346.915 691.776 346.637C693.002 346.246 694.102 345.733 695.076 345.1C696.515 344.163 697.679 342.962 698.566 341.496C699.795 339.551 700.537 336.977 700.793 333.775C700.861 332.933 700.894 332.047 700.894 331.117C700.894 329.371 700.636 327.916 700.118 326.752C699.915 326.2 699.698 325.693 699.469 325.233C699.209 324.71 698.932 324.247 698.638 323.842C698.614 323.809 698.59 323.777 698.566 323.745L705.938 323.842V315.112L690.127 315.403C690.024 315.38 689.918 315.357 689.808 315.334C688.685 315.098 687.239 314.863 685.471 314.627C683.569 314.373 681.79 314.244 680.136 314.239C680.104 314.239 680.072 314.239 680.039 314.239C679.67 314.239 679.306 314.243 678.946 314.251C675.639 314.327 672.734 314.753 670.23 315.527C668.189 316.159 666.415 317.023 664.907 318.119C662.254 320.035 660.609 322.997 659.972 327.003ZM685.712 337.691C685.982 337.522 686.225 337.336 686.441 337.131C687.735 335.902 688.381 333.898 688.381 331.117C688.381 328.336 687.735 326.332 686.441 325.103C686.346 325.008 686.246 324.917 686.141 324.829C685.631 324.405 685 324.068 684.246 323.815C683.139 323.445 681.769 323.26 680.136 323.26C680.104 323.26 680.072 323.26 680.039 323.26C677.499 323.273 675.585 323.781 674.297 324.786C674.168 324.887 674.045 324.992 673.928 325.103C672.7 326.332 672.085 328.336 672.085 331.117C672.085 333.898 672.7 335.902 673.928 337.131C674.016 337.21 674.108 337.287 674.203 337.36C674.901 337.901 675.791 338.298 676.875 338.549C677.445 338.682 678.07 338.774 678.747 338.826C678.957 338.842 679.171 338.855 679.39 338.863C679.633 338.872 679.881 338.877 680.136 338.877C680.169 338.877 680.201 338.877 680.233 338.877C682.637 338.866 684.463 338.471 685.712 337.691ZM679.143 331.916C679.214 332 679.29 332.086 679.372 332.172C679.403 332.204 679.434 332.236 679.466 332.268C679.496 332.296 679.526 332.324 679.556 332.351C679.758 332.537 679.955 332.689 680.136 332.813C680.157 332.827 680.177 332.84 680.197 332.854C680.389 332.723 680.599 332.559 680.816 332.353L679.788 331.271L679.143 331.916ZM679.487 330.954L678.903 331.603C678.78 331.429 678.681 331.264 678.604 331.117C678.705 330.925 678.842 330.703 679.024 330.467L679.487 330.954ZM679.942 331.117L680.999 332.174C681.133 332.04 681.252 331.908 681.357 331.779L680.345 330.714L679.942 331.117ZM680.016 330.367L679.626 330.8L679.143 330.318C679.263 330.175 679.399 330.028 679.554 329.881L680.016 330.367ZM680.354 330.705L681.364 331.771C681.555 331.536 681.702 331.313 681.813 331.117C681.7 330.919 681.552 330.693 681.357 330.455C681.318 330.407 681.277 330.359 681.234 330.31C681.162 330.228 681.084 330.144 680.999 330.06L680.354 330.705ZM680.024 330.358L679.564 329.871C679.763 329.683 679.956 329.526 680.136 329.396C680.156 329.382 680.175 329.369 680.194 329.355C680.329 329.453 680.471 329.566 680.618 329.698L680.024 330.358ZM711.251 333.913C711.085 335.579 711.002 337.364 711.002 339.265C711.002 345.279 711.746 350.194 713.233 354.009C714.72 357.76 717.113 360.54 720.411 362.351C723.774 364.162 728.203 365.067 733.7 365.067C739.261 365.067 743.691 364.162 746.989 362.351C750.352 360.54 752.777 357.76 754.264 354.009C754.673 352.961 755.025 351.83 755.321 350.616C756.104 347.411 756.495 343.627 756.495 339.265C756.495 335.216 756.104 331.699 755.321 328.714C754.979 327.409 754.562 326.205 754.07 325.103C752.518 321.417 750.061 318.701 746.698 316.955C743.4 315.144 739.067 314.239 733.7 314.239C728.397 314.239 724.065 315.144 720.702 316.955C718.835 317.924 717.247 319.193 715.938 320.76C715.167 321.684 714.493 322.711 713.916 323.842C713.708 324.249 713.513 324.669 713.33 325.103C712.285 327.541 711.592 330.478 711.251 333.913ZM742.527 348.092C743.044 345.829 743.303 342.886 743.303 339.265C743.303 335.708 743.012 332.895 742.43 330.826C741.848 328.692 740.878 327.172 739.52 326.267C738.162 325.362 736.222 324.909 733.7 324.909C731.243 324.909 729.303 325.362 727.88 326.267C726.522 327.172 725.552 328.692 724.97 330.826C724.388 332.895 724.097 335.708 724.097 339.265C724.097 342.886 724.323 345.829 724.776 348.092C725.293 350.291 726.231 351.907 727.589 352.942C728.947 353.912 730.984 354.397 733.7 354.397C736.416 354.397 738.453 353.912 739.811 352.942C741.169 351.907 742.074 350.291 742.527 348.092ZM765.321 364H778.222V331.893C779.386 331.311 780.777 330.664 782.393 329.953C782.83 329.768 783.272 329.588 783.722 329.412C785.004 328.91 786.34 328.444 787.728 328.013C788.433 327.77 789.124 327.554 789.802 327.366C790.927 327.053 792.014 326.816 793.063 326.655V314.142C792.011 314.298 790.924 314.559 789.802 314.926C789.283 315.096 788.756 315.288 788.222 315.503C787.994 315.595 787.765 315.691 787.534 315.791C785.952 316.446 784.462 317.17 783.063 317.963C782.805 318.109 782.549 318.258 782.296 318.41C780.93 319.175 779.748 319.917 778.751 320.636C778.674 320.692 778.598 320.748 778.522 320.803C778.483 320.832 778.444 320.861 778.406 320.89C778.344 320.937 778.283 320.983 778.222 321.029V315.306H765.321V364ZM676.616 364.837C676.292 364.822 675.978 364.801 675.674 364.776C674.963 364.711 674.446 364.679 674.122 364.679C672.838 365.555 671.922 366.351 671.376 367.069C671.317 367.146 671.263 367.223 671.212 367.298C670.829 367.921 670.588 368.685 670.489 369.592C670.454 369.909 670.436 370.244 670.436 370.596C670.436 372.083 670.792 373.247 671.503 374.088C672.038 374.768 672.828 375.302 673.873 375.69C674.219 375.819 674.593 375.931 674.995 376.028C676.677 376.416 678.94 376.61 681.785 376.61C682.015 376.61 682.242 376.608 682.464 376.605C685.821 376.557 688.33 376.146 689.993 375.372C690.141 375.302 690.283 375.23 690.418 375.155C692.229 374.25 693.134 372.73 693.134 370.596C693.134 368.915 692.811 367.686 692.164 366.91C691.582 366.134 690.58 365.617 689.157 365.358C687.735 365.164 685.795 365.067 683.337 365.067C682.691 365.067 681.915 365.035 681.009 364.97C680.104 364.97 679.166 364.938 678.196 364.873C677.646 364.873 677.119 364.861 676.616 364.837ZM677.262 366.286C677.262 366.286 677.272 366.288 677.29 366.294C677.271 366.289 677.262 366.286 677.262 366.286ZM677.328 366.307L676.783 368.581L677.845 370.139L678.075 366.698C677.723 366.465 677.449 366.351 677.328 366.307ZM678.196 366.781V370.654L679.303 372.277L679.729 372.539C680.352 371.526 680.428 370.736 680.436 370.596C680.435 370.498 680.394 369.279 679.364 367.912M675.296 374.776C676.136 374.835 676.992 374.866 677.86 374.872C678.8 374.929 679.729 374.962 680.648 374.969M674.122 366.732V369.089ZM675.044 366.031L676.731 368.505L677.244 366.284C677.259 366.288 677.275 366.291 677.292 366.295M674.122 369.238V374.679C674.044 374.679 674.004 374.677 674.017 374.678C674.026 374.678 674.062 374.68 674.129 374.684C674.266 374.692 674.475 374.708 674.769 374.735L674.806 374.738L674.844 374.741C674.99 374.754 675.137 374.765 675.284 374.775L675.039 375.841M675.04 375.841L675.296 374.776ZM672.366 368.067L674.122 369.238ZM799.802 364H812.703V315.306H799.802V364ZM812.8 307.546V296.488H799.802V307.546H812.8ZM820.088 315.306V326.073H825.811V347.51C825.811 352.101 826.264 355.69 827.169 358.277C828.139 360.799 829.724 362.577 831.922 363.612C834.121 364.647 836.999 365.164 840.555 365.164C841.978 365.164 843.756 365.002 845.89 364.679C846.758 364.551 847.576 364.429 848.343 364.311C849.048 364.203 849.71 364.099 850.33 364C850.744 363.933 851.14 363.869 851.516 363.806L851.128 353.427C850.546 353.492 849.803 353.556 848.897 353.621L846.181 353.815C845.276 353.88 844.597 353.912 844.144 353.912C843.462 353.912 842.854 353.86 842.321 353.756C841.592 353.614 841.004 353.375 840.555 353.039C839.779 352.457 839.262 351.455 839.003 350.032C838.809 348.609 838.712 346.637 838.712 344.115V326.073H851.128V315.306H838.712V302.405H825.811V315.306H820.088ZM858.343 364H871.244V327.528C871.958 327.29 872.795 327.039 873.754 326.777C874.356 326.612 875.007 326.442 875.706 326.267C877.581 325.814 879.392 325.588 881.138 325.588C883.336 325.588 884.953 326.041 885.988 326.946C887.087 327.851 887.831 329.339 888.219 331.408C888.607 333.413 888.801 336.096 888.801 339.459V364H901.799V338.489C901.799 332.604 901.281 327.884 900.247 324.327C899.277 320.77 897.531 318.216 895.009 316.664C892.487 315.047 888.962 314.239 884.436 314.239C883.416 314.239 882.352 314.313 881.244 314.46C880.033 314.622 878.769 314.871 877.452 315.209C874.93 315.856 872.86 316.47 871.244 317.052V295.421H858.343V364ZM932.852 325.634C933.29 325.603 933.729 325.588 934.171 325.588C936.24 325.588 937.825 326.073 938.924 327.043C940.023 328.013 940.735 329.565 941.058 331.699C941.446 333.833 941.64 336.614 941.64 340.041V364H954.541V339.847C954.541 337.519 954.444 335.288 954.25 333.154C954.137 331.288 953.95 329.719 953.688 328.446C953.651 328.264 953.612 328.087 953.571 327.916C953.997 327.703 954.488 327.49 955.045 327.277C955.6 327.065 956.22 326.853 956.905 326.641C957.204 326.549 957.515 326.456 957.839 326.364C959.65 325.847 961.493 325.588 963.368 325.588C965.502 325.588 967.086 326.073 968.121 327.043C969.22 328.013 969.932 329.565 970.255 331.699C970.643 333.768 970.837 336.484 970.837 339.847V364H983.738V338.683C983.738 335.378 983.578 332.436 983.258 329.856C983.041 328.102 982.75 326.516 982.384 325.097C982.351 324.968 982.317 324.841 982.283 324.715C981.313 321.094 979.567 318.442 977.045 316.761C974.523 315.08 970.869 314.239 966.084 314.239C964.144 314.239 962.139 314.498 960.07 315.015C958.001 315.532 956.093 316.147 954.347 316.858C954.004 316.998 953.672 317.138 953.351 317.277C952.04 317.849 950.917 318.42 949.982 318.992C949.896 318.884 949.809 318.777 949.72 318.673C948.535 317.28 947.071 316.222 945.326 315.5C943.451 314.659 941.026 314.239 938.051 314.239C937.014 314.239 935.95 314.341 934.859 314.544C933.911 314.721 932.941 314.975 931.952 315.306C931.595 315.425 931.235 315.555 930.873 315.694C930.756 315.736 930.641 315.778 930.526 315.82C928.869 316.426 927.444 317.033 926.251 317.639C926.222 317.654 926.193 317.668 926.165 317.683C925.693 317.925 925.257 318.168 924.859 318.41V315.306H911.958V364H924.859V327.916C925.829 327.399 927.155 326.881 928.836 326.364C929.082 326.291 929.329 326.223 929.577 326.161C930.656 325.887 931.748 325.712 932.852 325.634ZM992.594 324.924C992.232 326.387 992.051 328.031 992.051 329.856C992.051 333.154 992.601 335.773 993.7 337.713C993.712 337.732 993.723 337.751 993.734 337.771C994.835 339.617 996.537 341.021 998.841 341.981C1001.23 342.951 1004.24 343.695 1007.86 344.212C1009.17 344.415 1010.33 344.618 1011.35 344.821C1011.45 344.842 1011.56 344.863 1011.66 344.884C1011.8 344.913 1011.94 344.942 1012.07 344.971C1012.12 344.98 1012.16 344.99 1012.21 344.999C1013.08 345.189 1013.83 345.38 1014.46 345.57C1016.01 345.958 1017.04 346.443 1017.56 347.025C1018.14 347.607 1018.44 348.448 1018.44 349.547C1018.44 350.97 1018.11 352.069 1017.47 352.845C1016.82 353.556 1015.85 354.074 1014.56 354.397C1013.87 354.578 1013.07 354.709 1012.15 354.788C1011.99 354.803 1011.82 354.816 1011.64 354.827C1011.56 354.832 1011.48 354.837 1011.4 354.841C1011.12 354.856 1010.84 354.867 1010.54 354.874C1010.3 354.879 1010.05 354.882 1009.8 354.882C1008.76 354.882 1007.47 354.84 1005.92 354.756C1005.85 354.752 1005.78 354.748 1005.71 354.744C1005.63 354.74 1005.55 354.735 1005.47 354.731C1005.24 354.717 1005 354.703 1004.76 354.688C1004.14 354.628 1003.52 354.565 1002.89 354.499C1001.74 354.38 1000.58 354.25 999.401 354.111C999.386 354.109 999.371 354.107 999.356 354.105C999.088 354.074 998.82 354.042 998.55 354.009C997.137 353.832 995.814 353.671 994.582 353.524C994.296 353.49 994.014 353.457 993.738 353.425C993.462 353.392 993.191 353.361 992.924 353.33L992.536 362.933C992.918 363.016 993.318 363.099 993.738 363.182C994.809 363.393 996.004 363.605 997.324 363.816C997.336 363.818 997.349 363.82 997.361 363.822C997.529 363.849 997.699 363.876 997.871 363.903C999.747 364.187 1001.72 364.421 1003.8 364.606C1003.91 364.616 1004.02 364.626 1004.14 364.635C1004.31 364.65 1004.49 364.665 1004.66 364.679C1004.82 364.696 1004.99 364.713 1005.15 364.729C1007.42 364.954 1009.56 365.067 1011.55 365.067C1017.95 365.067 1022.86 363.903 1026.29 361.575C1029.78 359.182 1031.53 355.044 1031.53 349.159C1031.53 345.861 1030.98 343.242 1029.88 341.302C1028.85 339.362 1027.13 337.875 1024.74 336.84C1023.02 336.098 1020.89 335.473 1018.35 334.964C1017.99 334.893 1017.63 334.824 1017.26 334.757C1017.25 334.756 1017.24 334.755 1017.24 334.754C1016.56 334.633 1015.86 334.521 1015.14 334.415C1014.23 334.288 1013.39 334.161 1012.62 334.034C1012.6 334.031 1012.58 334.028 1012.56 334.025C1012.01 333.934 1011.49 333.843 1011.01 333.752C1010.84 333.719 1010.68 333.687 1010.52 333.655C1009.85 333.52 1009.25 333.386 1008.74 333.251C1007.31 332.798 1006.34 332.281 1005.83 331.699C1005.31 331.117 1005.05 330.373 1005.05 329.468C1005.05 328.175 1005.34 327.205 1005.92 326.558C1006.57 325.911 1007.47 325.459 1008.64 325.2C1009.35 325.003 1010.11 324.866 1010.94 324.789C1011.11 324.774 1011.27 324.761 1011.44 324.751C1011.82 324.727 1012.21 324.715 1012.62 324.715C1012.73 324.715 1012.86 324.715 1012.98 324.716C1013.99 324.724 1015.16 324.762 1016.47 324.83C1016.49 324.831 1016.51 324.832 1016.53 324.833C1016.95 324.855 1017.4 324.88 1017.85 324.909C1018.46 324.946 1019.07 324.988 1019.68 325.036C1019.76 325.042 1019.84 325.048 1019.92 325.054C1021.36 325.17 1022.81 325.316 1024.26 325.491C1024.62 325.524 1024.97 325.558 1025.32 325.592C1026.31 325.691 1027.23 325.798 1028.1 325.912C1028.73 325.994 1029.32 326.08 1029.88 326.17L1030.27 316.373C1029.25 316.141 1028.05 315.909 1026.66 315.677C1026.11 315.586 1025.54 315.494 1024.93 315.403C1022.8 315.08 1020.54 314.821 1018.14 314.627C1015.75 314.368 1013.42 314.239 1011.16 314.239C1007.73 314.239 1004.56 314.724 1001.65 315.694C998.744 316.599 996.416 318.184 994.67 320.447C993.719 321.68 993.027 323.173 992.594 324.924Z" fill="black"/>
<path d="M273.548 365.067C271.091 365.067 268.407 364.905 265.497 364.582C262.587 364.323 259.742 364 256.961 363.612C254.245 363.159 251.917 362.771 249.977 362.448L250.85 351.875C252.855 352.134 255.183 352.425 257.834 352.748C260.485 353.007 263.104 353.233 265.691 353.427C268.342 353.621 270.638 353.718 272.578 353.718C276.264 353.718 278.948 353.007 280.629 351.584C282.31 350.097 283.151 347.801 283.151 344.697C283.151 343.016 282.795 341.69 282.084 340.72C281.437 339.685 280.241 338.877 278.495 338.295C276.749 337.648 274.324 337.034 271.22 336.452C266.047 335.482 261.843 334.286 258.61 332.863C255.441 331.44 253.113 329.436 251.626 326.849C250.203 324.262 249.492 320.803 249.492 316.47C249.492 311.426 250.43 307.481 252.305 304.636C254.18 301.726 256.864 299.657 260.356 298.428C263.848 297.199 267.954 296.585 272.675 296.585C274.809 296.585 277.234 296.714 279.95 296.973C282.731 297.167 285.447 297.426 288.098 297.749C290.814 298.072 293.11 298.428 294.985 298.816L294.403 309.486C292.463 309.227 290.2 309.001 287.613 308.807C285.091 308.548 282.569 308.322 280.047 308.128C277.59 307.934 275.488 307.837 273.742 307.837C270.056 307.837 267.34 308.419 265.594 309.583C263.848 310.747 262.975 312.622 262.975 315.209C262.975 317.149 263.363 318.636 264.139 319.671C264.915 320.706 266.208 321.546 268.019 322.193C269.894 322.84 272.449 323.519 275.682 324.23C279.497 325.071 282.731 325.976 285.382 326.946C288.098 327.916 290.264 329.08 291.881 330.438C293.562 331.796 294.791 333.542 295.567 335.676C296.343 337.81 296.731 340.494 296.731 343.727C296.731 348.9 295.793 353.071 293.918 356.24C292.107 359.344 289.456 361.607 285.964 363.03C282.537 364.388 278.398 365.067 273.548 365.067ZM357.808 364V315.306H370.709V321.029C371.808 320.188 373.166 319.315 374.783 318.41C376.399 317.44 378.145 316.567 380.021 315.791C381.961 314.95 383.804 314.401 385.55 314.142V326.655C383.868 326.914 382.09 327.366 380.215 328.013C378.339 328.595 376.561 329.242 374.88 329.953C373.263 330.664 371.873 331.311 370.709 331.893V364H357.808ZM409.36 365.164C405.803 365.164 402.926 364.647 400.727 363.612C398.528 362.577 396.944 360.799 395.974 358.277C395.069 355.69 394.616 352.101 394.616 347.51V326.073H388.893V315.306H394.616V302.405H407.517V315.306H419.933V326.073H407.517V344.115C407.517 346.637 407.614 348.609 407.808 350.032C408.067 351.455 408.584 352.457 409.36 353.039C410.136 353.621 411.332 353.912 412.949 353.912C413.402 353.912 414.081 353.88 414.986 353.815C415.891 353.75 416.797 353.686 417.702 353.621C418.607 353.556 419.351 353.492 419.933 353.427L420.321 363.806C418.769 364.065 416.894 364.356 414.695 364.679C412.561 365.002 410.783 365.164 409.36 365.164ZM427.148 364V315.306H440.049V364H427.148ZM427.148 307.546V296.488H440.146V307.546H427.148ZM450.829 364V315.306H463.73V318.41C464.765 317.763 466.026 317.149 467.513 316.567C469 315.92 470.552 315.371 472.169 314.918C473.85 314.465 475.467 314.239 477.019 314.239C481.546 314.239 485.038 315.047 487.495 316.664C490.017 318.216 491.795 320.803 492.83 324.424C493.865 327.981 494.382 332.766 494.382 338.78V364H481.384V339.459C481.384 336.096 481.19 333.413 480.802 331.408C480.414 329.339 479.67 327.851 478.571 326.946C477.472 326.041 475.855 325.588 473.721 325.588C472.557 325.588 471.328 325.717 470.035 325.976C468.806 326.17 467.61 326.461 466.446 326.849C465.347 327.237 464.441 327.625 463.73 328.013V364H450.829ZM525.881 386.213C520.708 386.213 516.375 385.825 512.883 385.049C509.456 384.273 506.869 382.85 505.123 380.781C503.377 378.776 502.504 375.866 502.504 372.051C502.504 370.37 502.731 368.85 503.183 367.492C503.701 366.199 504.477 364.97 505.511 363.806C506.611 362.642 507.969 361.446 509.585 360.217C508.68 359.57 507.936 358.633 507.354 357.404C506.837 356.111 506.578 354.72 506.578 353.233C506.578 352.457 507.031 351.325 507.936 349.838C508.906 348.286 509.844 346.928 510.749 345.764C509.456 345.182 508.227 344.341 507.063 343.242C505.899 342.078 504.929 340.526 504.153 338.586C503.442 336.646 503.086 334.156 503.086 331.117C503.086 324.974 504.832 320.641 508.324 318.119C511.881 315.532 516.925 314.239 523.456 314.239C525.138 314.239 526.948 314.368 528.888 314.627C530.828 314.886 532.38 315.144 533.544 315.403L549.355 315.112V323.842L541.983 323.745C542.565 324.521 543.083 325.523 543.535 326.752C544.053 327.916 544.311 329.371 544.311 331.117C544.311 335.579 543.535 339.039 541.983 341.496C540.496 343.953 538.233 345.667 535.193 346.637C532.154 347.542 528.306 347.995 523.65 347.995C523.133 347.995 522.422 347.963 521.516 347.898C520.611 347.769 519.867 347.672 519.285 347.607C519.027 348.254 518.768 348.997 518.509 349.838C518.251 350.614 518.121 351.164 518.121 351.487C518.121 352.328 518.38 352.974 518.897 353.427C519.479 353.88 520.611 354.203 522.292 354.397C524.038 354.526 526.657 354.591 530.149 354.591C534.741 354.591 538.394 355.011 541.11 355.852C543.891 356.693 545.863 358.18 547.027 360.314C548.191 362.448 548.773 365.455 548.773 369.335C548.773 375.09 546.736 379.326 542.662 382.042C538.653 384.823 533.059 386.213 525.881 386.213ZM525.202 376.61C529.212 376.61 532.089 376.125 533.835 375.155C535.646 374.25 536.551 372.73 536.551 370.596C536.551 368.915 536.228 367.686 535.581 366.91C534.999 366.134 533.997 365.617 532.574 365.358C531.152 365.164 529.212 365.067 526.754 365.067C526.108 365.067 525.332 365.035 524.426 364.97C523.521 364.97 522.583 364.938 521.613 364.873C520.708 364.873 519.867 364.841 519.091 364.776C518.38 364.711 517.863 364.679 517.539 364.679C516.117 365.649 515.147 366.522 514.629 367.298C514.112 368.139 513.853 369.238 513.853 370.596C513.853 372.083 514.209 373.247 514.92 374.088C515.632 374.993 516.796 375.64 518.412 376.028C520.094 376.416 522.357 376.61 525.202 376.61ZM523.553 338.877C526.528 338.877 528.63 338.295 529.858 337.131C531.152 335.902 531.798 333.898 531.798 331.117C531.798 328.336 531.152 326.332 529.858 325.103C528.63 323.874 526.528 323.26 523.553 323.26C520.708 323.26 518.639 323.874 517.345 325.103C516.117 326.332 515.502 328.336 515.502 331.117C515.502 333.898 516.117 335.902 517.345 337.131C518.639 338.295 520.708 338.877 523.553 338.877ZM573.118 364L589.996 297.749H613.373L630.154 364H616.768L613.082 350.614H589.899L586.407 364H573.118ZM592.033 339.847H611.142L603.673 308.613H599.599L592.033 339.847ZM637.071 364V295.421H649.972V364H637.071ZM733.7 365.067C728.203 365.067 723.774 364.162 720.411 362.351C717.113 360.54 714.72 357.76 713.233 354.009C711.746 350.194 711.002 345.279 711.002 339.265C711.002 333.445 711.778 328.724 713.33 325.103C714.882 321.417 717.339 318.701 720.702 316.955C724.065 315.144 728.397 314.239 733.7 314.239C739.067 314.239 743.4 315.144 746.698 316.955C750.061 318.701 752.518 321.417 754.07 325.103C755.687 328.724 756.495 333.445 756.495 339.265C756.495 345.279 755.751 350.194 754.264 354.009C752.777 357.76 750.352 360.54 746.989 362.351C743.691 364.162 739.261 365.067 733.7 365.067ZM733.7 354.397C736.416 354.397 738.453 353.912 739.811 352.942C741.169 351.907 742.074 350.291 742.527 348.092C743.044 345.829 743.303 342.886 743.303 339.265C743.303 335.708 743.012 332.895 742.43 330.826C741.848 328.692 740.878 327.172 739.52 326.267C738.162 325.362 736.222 324.909 733.7 324.909C731.243 324.909 729.303 325.362 727.88 326.267C726.522 327.172 725.552 328.692 724.97 330.826C724.388 332.895 724.097 335.708 724.097 339.265C724.097 342.886 724.323 345.829 724.776 348.092C725.293 350.291 726.231 351.907 727.589 352.942C728.947 353.912 730.984 354.397 733.7 354.397ZM765.321 364V315.306H778.222V321.029C779.322 320.188 780.68 319.315 782.296 318.41C783.913 317.44 785.659 316.567 787.534 315.791C789.474 314.95 791.317 314.401 793.063 314.142V326.655C791.382 326.914 789.604 327.366 787.728 328.013C785.853 328.595 784.075 329.242 782.393 329.953C780.777 330.664 779.386 331.311 778.222 331.893V364H765.321ZM799.802 364V315.306H812.703V364H799.802ZM799.802 307.546V296.488H812.8V307.546H799.802ZM840.555 365.164C836.999 365.164 834.121 364.647 831.922 363.612C829.724 362.577 828.139 360.799 827.169 358.277C826.264 355.69 825.811 352.101 825.811 347.51V326.073H820.088V315.306H825.811V302.405H838.712V315.306H851.128V326.073H838.712V344.115C838.712 346.637 838.809 348.609 839.003 350.032C839.262 351.455 839.779 352.457 840.555 353.039C841.331 353.621 842.528 353.912 844.144 353.912C844.597 353.912 845.276 353.88 846.181 353.815C847.087 353.75 847.992 353.686 848.897 353.621C849.803 353.556 850.546 353.492 851.128 353.427L851.516 363.806C849.964 364.065 848.089 364.356 845.89 364.679C843.756 365.002 841.978 365.164 840.555 365.164ZM858.343 364V295.421H871.244V317.052C872.86 316.47 874.93 315.856 877.452 315.209C879.974 314.562 882.302 314.239 884.436 314.239C888.962 314.239 892.487 315.047 895.009 316.664C897.531 318.216 899.277 320.77 900.247 324.327C901.281 327.884 901.799 332.604 901.799 338.489V364H888.801V339.459C888.801 336.096 888.607 333.413 888.219 331.408C887.831 329.339 887.087 327.851 885.988 326.946C884.953 326.041 883.336 325.588 881.138 325.588C879.392 325.588 877.581 325.814 875.706 326.267C873.895 326.72 872.408 327.14 871.244 327.528V364H858.343ZM911.958 364V315.306H924.859V318.41C926.346 317.505 928.351 316.599 930.873 315.694C933.395 314.724 935.788 314.239 938.051 314.239C941.026 314.239 943.451 314.659 945.326 315.5C947.201 316.276 948.753 317.44 949.982 318.992C951.146 318.281 952.601 317.569 954.347 316.858C956.093 316.147 958.001 315.532 960.07 315.015C962.139 314.498 964.144 314.239 966.084 314.239C970.869 314.239 974.523 315.08 977.045 316.761C979.567 318.442 981.313 321.094 982.283 324.715C983.253 328.272 983.738 332.928 983.738 338.683V364H970.837V339.847C970.837 336.484 970.643 333.768 970.255 331.699C969.932 329.565 969.22 328.013 968.121 327.043C967.086 326.073 965.502 325.588 963.368 325.588C961.493 325.588 959.65 325.847 957.839 326.364C956.028 326.881 954.606 327.399 953.571 327.916C953.894 329.274 954.121 331.02 954.25 333.154C954.444 335.288 954.541 337.519 954.541 339.847V364H941.64V340.041C941.64 336.614 941.446 333.833 941.058 331.699C940.735 329.565 940.023 328.013 938.924 327.043C937.825 326.073 936.24 325.588 934.171 325.588C932.36 325.588 930.582 325.847 928.836 326.364C927.155 326.881 925.829 327.399 924.859 327.916V364H911.958ZM1011.55 365.067C1009.41 365.067 1007.12 364.938 1004.66 364.679C1002.27 364.485 1000.01 364.226 997.871 363.903C995.802 363.58 994.024 363.256 992.536 362.933L992.924 353.33C994.606 353.524 996.481 353.75 998.55 354.009C1000.68 354.268 1002.75 354.494 1004.76 354.688C1006.83 354.817 1008.51 354.882 1009.8 354.882C1011.74 354.882 1013.33 354.72 1014.56 354.397C1015.85 354.074 1016.82 353.556 1017.47 352.845C1018.11 352.069 1018.44 350.97 1018.44 349.547C1018.44 348.448 1018.14 347.607 1017.56 347.025C1017.04 346.443 1016.01 345.958 1014.46 345.57C1012.97 345.117 1010.77 344.665 1007.86 344.212C1004.24 343.695 1001.23 342.951 998.841 341.981C996.513 341.011 994.8 339.588 993.7 337.713C992.601 335.773 992.051 333.154 992.051 329.856C992.051 325.847 992.924 322.71 994.67 320.447C996.416 318.184 998.744 316.599 1001.65 315.694C1004.56 314.724 1007.73 314.239 1011.16 314.239C1013.42 314.239 1015.75 314.368 1018.14 314.627C1020.54 314.821 1022.8 315.08 1024.93 315.403C1027.07 315.726 1028.85 316.05 1030.27 316.373L1029.88 326.17C1028.26 325.911 1026.39 325.685 1024.26 325.491C1022.12 325.232 1019.99 325.038 1017.85 324.909C1015.78 324.78 1014.04 324.715 1012.62 324.715C1011.13 324.715 1009.8 324.877 1008.64 325.2C1007.47 325.459 1006.57 325.911 1005.92 326.558C1005.34 327.205 1005.05 328.175 1005.05 329.468C1005.05 330.373 1005.31 331.117 1005.83 331.699C1006.34 332.281 1007.31 332.798 1008.74 333.251C1010.22 333.639 1012.36 334.027 1015.14 334.415C1019.15 334.997 1022.35 335.805 1024.74 336.84C1027.13 337.875 1028.85 339.362 1029.88 341.302C1030.98 343.242 1031.53 345.861 1031.53 349.159C1031.53 355.044 1029.78 359.182 1026.29 361.575C1022.86 363.903 1017.95 365.067 1011.55 365.067Z" fill="white"/>
<path d="M326.186 365.067C320.69 365.067 316.26 364.162 312.897 362.351C309.599 360.54 307.207 357.76 305.719 354.009C304.232 350.194 303.488 345.279 303.488 339.265C303.488 333.445 304.264 328.724 305.816 325.103C307.368 321.417 309.826 318.701 313.188 316.955C316.551 315.144 320.884 314.239 326.186 314.239C331.554 314.239 335.886 315.144 339.184 316.955C342.547 318.701 345.004 321.417 346.556 325.103C348.173 328.724 348.981 333.445 348.981 339.265C348.981 345.279 348.238 350.194 346.75 354.009C345.263 357.76 342.838 360.54 339.475 362.351C336.177 364.162 331.748 365.067 326.186 365.067ZM326.186 354.397C328.902 354.397 330.939 353.912 332.297 352.942C333.655 351.907 334.561 350.291 335.013 348.092C335.531 345.829 335.789 342.886 335.789 339.265C335.789 335.708 335.498 332.895 334.916 330.826C334.334 328.692 333.364 327.172 332.006 326.267C330.648 325.362 328.708 324.909 326.186 324.909C323.729 324.909 321.789 325.362 320.366 326.267C319.008 327.172 318.038 328.692 317.456 330.826C316.874 332.895 316.583 335.708 316.583 339.265C316.583 342.886 316.81 345.829 317.262 348.092C317.78 350.291 318.717 351.907 320.075 352.942C321.433 353.912 323.47 354.397 326.186 354.397Z" fill="#57FF07"/>
<path d="M682.464 386.213C677.291 386.213 672.958 385.825 669.466 385.049C666.039 384.273 663.452 382.85 661.706 380.781C659.96 378.776 659.087 375.866 659.087 372.051C659.087 370.37 659.314 368.85 659.766 367.492C660.284 366.199 661.06 364.97 662.094 363.806C663.194 362.642 664.552 361.446 666.168 360.217C665.263 359.57 664.519 358.633 663.937 357.404C663.42 356.111 663.161 354.72 663.161 353.233C663.161 352.457 663.614 351.325 664.519 349.838C665.489 348.286 666.427 346.928 667.332 345.764C666.039 345.182 664.81 344.341 663.646 343.242C662.482 342.078 661.512 340.526 660.736 338.586C660.025 336.646 659.669 334.156 659.669 331.117C659.669 324.974 661.415 320.641 664.907 318.119C668.464 315.532 673.508 314.239 680.039 314.239C681.721 314.239 683.531 314.368 685.471 314.627C687.411 314.886 688.963 315.144 690.127 315.403L705.938 315.112V323.842L698.566 323.745C699.148 324.521 699.666 325.523 700.118 326.752C700.636 327.916 700.894 329.371 700.894 331.117C700.894 335.579 700.118 339.039 698.566 341.496C697.079 343.953 694.816 345.667 691.776 346.637C688.737 347.542 684.889 347.995 680.233 347.995C679.716 347.995 679.005 347.963 678.099 347.898C677.194 347.769 676.45 347.672 675.868 347.607C675.61 348.254 675.351 348.997 675.092 349.838C674.834 350.614 674.704 351.164 674.704 351.487C674.704 352.328 674.963 352.974 675.48 353.427C676.062 353.88 677.194 354.203 678.875 354.397C680.621 354.526 683.24 354.591 686.732 354.591C691.324 354.591 694.977 355.011 697.693 355.852C700.474 356.693 702.446 358.18 703.61 360.314C704.774 362.448 705.356 365.455 705.356 369.335C705.356 375.09 703.319 379.326 699.245 382.042C695.236 384.823 689.642 386.213 682.464 386.213ZM681.785 376.61C685.795 376.61 688.672 376.125 690.418 375.155C692.229 374.25 693.134 372.73 693.134 370.596C693.134 368.915 692.811 367.686 692.164 366.91C691.582 366.134 690.58 365.617 689.157 365.358C687.735 365.164 685.795 365.067 683.337 365.067C682.691 365.067 681.915 365.035 681.009 364.97C680.104 364.97 679.166 364.938 678.196 364.873C677.291 364.873 676.45 364.841 675.674 364.776C674.963 364.711 674.446 364.679 674.122 364.679C672.7 365.649 671.73 366.522 671.212 367.298C670.695 368.139 670.436 369.238 670.436 370.596C670.436 372.083 670.792 373.247 671.503 374.088C672.215 374.993 673.379 375.64 674.995 376.028C676.677 376.416 678.94 376.61 681.785 376.61ZM680.136 338.877C683.111 338.877 685.213 338.295 686.441 337.131C687.735 335.902 688.381 333.898 688.381 331.117C688.381 328.336 687.735 326.332 686.441 325.103C685.213 323.874 683.111 323.26 680.136 323.26C677.291 323.26 675.222 323.874 673.928 325.103C672.7 326.332 672.085 328.336 672.085 331.117C672.085 333.898 672.7 335.902 673.928 337.131C675.222 338.295 677.291 338.877 680.136 338.877Z" fill="#FF3434"/>
<path fill-rule="evenodd" clip-rule="evenodd" d="M329.574 263C329.574 261.895 328.679 261 327.574 261H326.386C325.281 261 324.386 261.895 324.386 263V286.119C324.386 287.901 322.231 288.793 320.972 287.533L316.866 283.427C316.085 282.646 314.819 282.646 314.038 283.427L312.586 284.879C311.805 285.66 311.805 286.927 312.586 287.708L325.35 300.471C326.131 301.252 327.397 301.252 328.178 300.471L340.942 287.708C341.723 286.927 341.723 285.66 340.942 284.879L339.49 283.427C338.709 282.646 337.443 282.646 336.662 283.427L332.988 287.101C331.728 288.361 329.574 287.468 329.574 285.686V263Z" fill="#0075FF"/>
<path fill-rule="evenodd" clip-rule="evenodd" d="M685.574 263C685.574 261.895 684.679 261 683.574 261H682.386C681.281 261 680.386 261.895 680.386 263V286.119C680.386 287.901 678.231 288.793 676.972 287.533L672.866 283.427C672.085 282.646 670.819 282.646 670.038 283.427L668.586 284.879C667.805 285.66 667.805 286.927 668.586 287.708L681.35 300.471C682.131 301.252 683.397 301.252 684.178 300.471L696.942 287.708C697.723 286.927 697.723 285.66 696.942 284.879L695.49 283.427C694.709 282.646 693.443 282.646 692.662 283.427L688.988 287.101C687.728 288.361 685.574 287.468 685.574 285.686V263Z" fill="#0075FF"/>
<line x1="569.5" y1="260.5" x2="569.5" y2="395.5" stroke="#FAFF00" stroke-width="3" stroke-linecap="round"/>
</g>
<defs>
<filter id="filter0_d_2_3" x="-46.0588" y="86.9412" width="1659.12" height="848.118" filterUnits="userSpaceOnUse" color-interpolation-filters="sRGB">
<feFlood flood-opacity="0" result="BackgroundImageFix"/>
<feColorMatrix in="SourceAlpha" type="matrix" values="0 0 0 0 0 0 0 0 0 0 0 0 0 0 0 0 0 0 127 0" result="hardAlpha"/>
<feOffset dy="4"/>
<feGaussianBlur stdDeviation="2"/>
<feComposite in2="hardAlpha" operator="out"/>
<feColorMatrix type="matrix" values="0 0 0 0 0 0 0 0 0 0 0 0 0 0 0 0 0 0 0.25 0"/>
<feBlend mode="normal" in2="BackgroundImageFix" result="effect1_dropShadow_2_3"/>
<feBlend mode="normal" in="SourceGraphic" in2="effect1_dropShadow_2_3" result="shape"/>
</filter>
<linearGradient id="paint0_linear_2_3" x1="783.5" y1="89" x2="783.5" y2="925" gradientUnits="userSpaceOnUse">
<stop stop-color="white"/>
<stop offset="1" stop-color="#F100F5" stop-opacity="0"/>
</linearGradient>
<clipPath id="clip0_2_3">
<rect width="1280" height="640" rx="56" fill="white"/>
</clipPath>
</defs>
</svg>
